<svg width="60" height="60" viewBox="0 0 60 60" fill="none" xmlns="http://www.w3.org/2000/svg">
<rect x="1.525" y="1.525" width="56.95" height="56.95" stroke="black" stroke-width="3.05"/>
<path d="M21.5 11V25H18.84L11.86 16.5V25H8.66V11H11.34L18.3 19.5V11H21.5ZM31.0323 25.24C29.0323 25.24 27.4723 24.6867 26.3523 23.58C25.2457 22.4733 24.6923 20.8933 24.6923 18.84V11H27.9323V18.72C27.9323 21.2267 28.9723 22.48 31.0523 22.48C32.0657 22.48 32.839 22.18 33.3723 21.58C33.9057 20.9667 34.1723 20.0133 34.1723 18.72V11H37.3723V18.84C37.3723 20.8933 36.8123 22.4733 35.6923 23.58C34.5857 24.6867 33.0323 25.24 31.0323 25.24ZM18.94 41.72C19.74 41.9733 20.3667 42.4 20.82 43C21.2733 43.5867 21.5 44.3133 21.5 45.18C21.5 46.4067 21.02 47.3533 20.06 48.02C19.1133 48.6733 17.7267 49 15.9 49H8.66V35H15.5C17.2067 35 18.5133 35.3267 19.42 35.98C20.34 36.6333 20.8 37.52 20.8 38.64C20.8 39.32 20.6333 39.9267 20.3 40.46C19.98 40.9933 19.5267 41.4133 18.94 41.72ZM11.88 37.44V40.74H15.1C15.9 40.74 16.5067 40.6 16.92 40.32C17.3333 40.04 17.54 39.6267 17.54 39.08C17.54 38.5333 17.3333 38.1267 16.92 37.86C16.5067 37.58 15.9 37.44 15.1 37.44H11.88ZM15.66 46.56C16.5133 46.56 17.1533 46.42 17.58 46.14C18.02 45.86 18.24 45.4267 18.24 44.84C18.24 43.68 17.38 43.1 15.66 43.1H11.88V46.56H15.66ZM23.953 35H27.193V46.36H34.213V49H23.953V35ZM37.5888 49.16C37.0421 49.16 36.5821 48.9733 36.2088 48.6C35.8354 48.2267 35.6488 47.76 35.6488 47.2C35.6488 46.6267 35.8354 46.1667 36.2088 45.82C36.5821 45.46 37.0421 45.28 37.5888 45.28C38.1354 45.28 38.5954 45.46 38.9688 45.82C39.3421 46.1667 39.5288 46.6267 39.5288 47.2C39.5288 47.76 39.3421 48.2267 38.9688 48.6C38.5954 48.9733 38.1354 49.16 37.5888 49.16Z" fill="black"/>
</svg>
