<svg width="512" height="512" viewBox="0 0 512 512" fill="none" xmlns="http://www.w3.org/2000/svg">
<rect x="13.0133" y="13.0133" width="485.973" height="485.973" stroke="#F9D342" stroke-width="26.0267"/>
<path d="M183.467 96.7333V216.2H160.768L101.205 143.667V216.2H73.8987V96.7333H96.768L156.16 169.267V96.7333H183.467ZM264.809 218.248C247.743 218.248 234.431 213.526 224.873 204.083C215.43 194.639 210.708 181.156 210.708 163.635V96.7333H238.356V162.611C238.356 184.001 247.231 194.696 264.98 194.696C273.627 194.696 280.226 192.136 284.777 187.016C289.328 181.782 291.604 173.647 291.604 162.611V96.7333H318.911V163.635C318.911 181.156 314.132 194.639 304.575 204.083C295.131 213.526 281.876 218.248 264.809 218.248ZM161.621 362.077C168.448 364.239 173.796 367.88 177.664 373C181.532 378.006 183.467 384.207 183.467 391.603C183.467 402.07 179.371 410.148 171.179 415.837C163.1 421.412 151.268 424.2 135.68 424.2H73.8987V304.733H132.267C146.83 304.733 157.98 307.521 165.717 313.096C173.568 318.671 177.493 326.237 177.493 335.795C177.493 341.597 176.071 346.774 173.227 351.325C170.496 355.876 166.628 359.46 161.621 362.077ZM101.376 325.555V353.715H128.853C135.68 353.715 140.857 352.52 144.384 350.131C147.911 347.741 149.675 344.214 149.675 339.549C149.675 334.884 147.911 331.414 144.384 329.139C140.857 326.749 135.68 325.555 128.853 325.555H101.376ZM133.632 403.379C140.914 403.379 146.375 402.184 150.016 399.795C153.771 397.405 155.648 393.708 155.648 388.701C155.648 378.803 148.309 373.853 133.632 373.853H101.376V403.379H133.632ZM204.399 304.733H232.047V401.672H291.951V424.2H204.399V304.733ZM320.757 425.565C316.092 425.565 312.167 423.972 308.981 420.787C305.796 417.601 304.203 413.619 304.203 408.84C304.203 403.948 305.796 400.022 308.981 397.064C312.167 393.992 316.092 392.456 320.757 392.456C325.422 392.456 329.348 393.992 332.533 397.064C335.719 400.022 337.312 403.948 337.312 408.84C337.312 413.619 335.719 417.601 332.533 420.787C329.348 423.972 325.422 425.565 320.757 425.565Z" fill="#F9D342"/>
</svg>
